<?xml version="1.0" encoding="UTF-8" standalone="no"?>
<svg width="771px" height="167px" viewBox="0 0 771 167" version="1.1" xmlns="http://www.w3.org/2000/svg" xmlns:xlink="http://www.w3.org/1999/xlink">
    <!-- Generator: Sketch 41.2 (35397) - http://www.bohemiancoding.com/sketch -->
    <title>Page 1</title>
    <desc>Created with Sketch.</desc>
    <defs>
        <polygon id="path-1" points="0.3816 56 52.4076 56 52.4076 0.4695 0.3816 0.4695"></polygon>
        <polygon id="path-3" points="78.2028 0.128 0 0.128 0 165.43 156.4056 165.43 156.4056 0.128 78.2028 0.128"></polygon>
    </defs>
    <g id="UI" stroke="none" stroke-width="1" fill="none" fill-rule="evenodd">
        <g id="Page-1" transform="translate(0.000000, -1.000000)">
            <path d="M240.4986,45.3949 L218.8116,45.3949 L218.8116,68.3959 L240.4986,68.3959 C248.3846,68.3959 252.9846,64.0149 252.9846,56.8949 C252.9846,50.7619 248.7136,45.3949 240.4986,45.3949 M240.0606,14.3989 L218.8116,14.3989 L218.8116,35.8659 L240.0606,35.8659 C247.3986,35.8659 251.5616,31.2659 251.5616,25.1319 C251.5616,19.1079 247.3986,14.3989 240.0606,14.3989 M242.9076,77.9249 L215.0886,77.9249 C211.1446,77.9249 207.9686,74.7489 207.9686,70.8059 L207.9686,11.9889 C207.9686,8.0459 211.1446,4.8699 215.0886,4.8699 L242.0326,4.8699 C255.0656,4.8699 262.7326,12.8649 262.7326,23.4899 C262.7326,32.6899 256.7086,38.8229 249.9176,40.2469 C257.6946,41.4519 264.1566,49.3379 264.1566,58.2099 C264.1566,69.7099 256.4896,77.9249 242.9076,77.9249" id="Fill-1" fill="#7E57C2"></path>
            <path d="M300.6246,31.5947 C290.1086,31.5947 284.9626,40.3567 284.5236,47.6957 L316.9436,47.6957 C316.7246,40.5757 311.9056,31.5947 300.6246,31.5947 M321.3246,54.5947 L284.5236,54.5947 C285.2906,63.6857 291.8616,71.3527 302.5956,71.3527 C307.0866,71.3527 311.9056,69.8197 315.7396,66.9717 C316.3956,66.6437 317.1636,66.4247 317.9296,66.4247 C319.6826,66.4247 321.8726,67.9577 321.8726,70.3667 C321.8726,76.2817 308.2906,79.2397 301.6096,79.2397 C285.8376,79.2397 274.3376,68.0677 274.3376,51.4187 C274.3376,36.0857 285.3996,23.7087 300.7336,23.7087 C313.5486,23.7087 322.3106,31.7037 325.3776,43.5327 C325.8156,45.2857 326.3626,47.5857 326.3626,49.6667 C326.3626,52.2957 324.0626,54.5947 321.3246,54.5947" id="Fill-3" fill="#7E57C2"></path>
            <path d="M361.9566,31.5947 C351.4406,31.5947 346.2946,40.3567 345.8556,47.6957 L378.2756,47.6957 C378.0566,40.5757 373.2376,31.5947 361.9566,31.5947 M382.6566,54.5947 L345.8556,54.5947 C346.6226,63.6857 353.1936,71.3527 363.9276,71.3527 C368.4186,71.3527 373.2376,69.8197 377.0716,66.9717 C377.7276,66.6437 378.4956,66.4247 379.2616,66.4247 C381.0146,66.4247 383.2046,67.9577 383.2046,70.3667 C383.2046,76.2817 369.6226,79.2397 362.9416,79.2397 C347.1696,79.2397 335.6696,68.0677 335.6696,51.4187 C335.6696,36.0857 346.7316,23.7087 362.0656,23.7087 C374.8806,23.7087 383.6426,31.7037 386.7096,43.5327 C387.1476,45.2857 387.6946,47.5857 387.6946,49.6667 C387.6946,52.2957 385.3946,54.5947 382.6566,54.5947" id="Fill-5" fill="#7E57C2"></path>
            <path d="M441.0318,72.7768 C437.0888,76.6098 431.7218,79.2388 423.8368,79.2388 C407.9548,79.2388 397.0018,67.3008 397.0018,51.4188 C397.0018,35.6468 407.9548,23.7088 423.8368,23.7088 C431.9408,23.7088 437.8558,26.5558 441.4698,30.7178 C442.0168,31.3758 442.2368,32.1418 442.2368,33.0188 C442.2368,35.4278 440.1558,37.3998 437.7458,37.3998 C436.6508,37.3998 435.5548,36.9618 434.6788,36.1948 C431.7218,33.5658 428.2178,32.3608 424.3838,32.3608 C413.8688,32.3608 407.0788,40.3568 407.0788,51.4188 C407.0788,62.4818 413.8688,70.5868 424.3838,70.5868 C428.3268,70.5868 431.7218,69.2718 434.6788,66.6438 C435.5548,65.9858 436.6508,65.6578 437.7458,65.6578 C440.0468,65.6578 442.3458,67.4098 442.3458,69.9288 C442.3458,70.9148 441.9078,72.0098 441.0318,72.7768" id="Fill-7" fill="#7E57C2"></path>
            <path d="M495.1344,78.582 C492.5054,78.582 490.3154,76.392 490.3154,73.763 L490.3154,43.752 C490.3154,34.99 485.7154,32.361 478.9244,32.361 C472.7904,32.361 467.2044,36.085 464.2474,40.138 L464.2474,73.763 C464.2474,76.392 462.0574,78.582 459.3194,78.582 C456.6904,78.582 454.4994,76.392 454.4994,73.763 L454.4994,8.922 C454.4994,6.403 456.6904,4.213 459.5374,4.213 C462.0574,4.213 464.2474,6.403 464.2474,8.922 L464.2474,32.471 C467.8624,28.199 474.8714,23.708 483.0864,23.708 C494.2584,23.708 500.0634,29.294 500.0634,40.466 L500.0634,73.763 C500.0634,76.392 497.8724,78.582 495.1344,78.582" id="Fill-9" fill="#7E57C2"></path>
            <path d="M586.6959,30.3896 L572.8959,74.0916 C572.1299,76.7206 569.6099,78.5816 566.7619,78.5816 L566.6529,78.5816 C563.8049,78.5816 561.3949,76.7206 560.5189,74.0916 L548.6899,37.1806 L536.7519,74.0916 C535.9849,76.7206 533.4659,78.5816 530.6179,78.5816 L530.3989,78.5816 C527.6609,78.5816 525.2519,76.7206 524.3749,74.0916 L510.5749,30.3896 C510.4659,29.9516 510.3549,29.5136 510.3549,29.0756 C510.3549,26.7756 512.3269,24.3656 515.0649,24.3656 C517.1459,24.3656 519.2269,25.6806 519.8839,27.6516 L531.1659,65.4386 L543.4329,28.0896 C544.1999,25.8996 546.1719,24.3656 548.7999,24.3656 C551.0999,24.3656 553.0709,25.8996 553.8379,28.0896 L566.2149,65.4386 L577.4959,27.6516 C578.0439,25.6806 580.0149,24.3656 582.0959,24.3656 C584.9439,24.3656 586.9159,26.5566 586.9159,29.0756 C586.9159,29.5136 586.8049,29.9516 586.6959,30.3896" id="Fill-11" fill="#7E57C2"></path>
            <path d="M620.6451,32.3613 C610.1301,32.3613 604.1061,41.3423 604.1061,51.4193 C604.1061,61.6053 610.1301,70.5863 620.6451,70.5863 C631.2691,70.5863 637.1831,61.6053 637.1831,51.4193 C637.1831,41.3423 631.2691,32.3613 620.6451,32.3613 M620.6451,79.2393 C604.2151,79.2393 594.0301,66.6433 594.0301,51.4193 C594.0301,36.1943 604.2151,23.7083 620.6451,23.7083 C637.1831,23.7083 647.3701,36.1943 647.3701,51.4193 C647.3701,66.6433 637.1831,79.2393 620.6451,79.2393" id="Fill-13" fill="#7E57C2"></path>
            <path d="M683.4009,32.3613 C672.8859,32.3613 666.8619,41.3423 666.8619,51.4193 C666.8619,61.6053 672.8859,70.5863 683.4009,70.5863 C694.0249,70.5863 699.9389,61.6053 699.9389,51.4193 C699.9389,41.3423 694.0249,32.3613 683.4009,32.3613 M683.4009,79.2393 C666.9709,79.2393 656.7859,66.6433 656.7859,51.4193 C656.7859,36.1943 666.9709,23.7083 683.4009,23.7083 C699.9389,23.7083 710.1259,36.1943 710.1259,51.4193 C710.1259,66.6433 699.9389,79.2393 683.4009,79.2393" id="Fill-15" fill="#7E57C2"></path>
            <path d="M760.5045,40.247 C757.7665,35.976 751.7425,32.361 745.6085,32.361 C735.7515,32.361 729.6175,40.466 729.6175,51.529 C729.6175,62.591 735.7515,70.586 745.6085,70.586 C751.7425,70.586 757.7665,67.191 760.5045,62.81 L760.5045,40.247 Z M765.3235,78.582 C762.6945,78.582 760.5045,76.392 760.5045,73.763 L760.5045,70.367 C756.4515,75.624 750.2085,79.239 743.0895,79.239 C729.3995,79.239 719.5415,68.834 719.5415,51.529 C719.5415,34.552 729.2895,23.708 743.0895,23.708 C749.9895,23.708 756.2335,26.995 760.5045,32.69 L760.5045,8.922 C760.5045,6.403 762.6945,4.213 765.5425,4.213 C768.0625,4.213 770.2525,6.403 770.2525,8.922 L770.2525,73.763 C770.2525,76.392 768.0625,78.582 765.3235,78.582 L765.3235,78.582 Z" id="Fill-17" fill="#7E57C2"></path>
            <path d="M276.0953,167.2148 C273.0293,167.2148 270.6183,164.8058 270.6183,161.8478 L270.6183,108.8368 L247.3993,165.4618 C246.9603,166.4478 245.9753,167.2148 244.5513,167.2148 C243.4563,167.2148 242.3613,166.4478 241.9223,165.4618 L218.8123,108.8368 L218.8123,161.8478 C218.8123,164.8058 216.4033,167.2148 213.3353,167.2148 C210.3783,167.2148 207.9683,164.8058 207.9683,161.8478 L207.9683,100.8408 C207.9683,96.6788 211.4743,93.0648 215.8553,93.0648 C219.9073,92.8458 223.8513,94.5978 225.3843,98.4318 L244.6603,145.5278 L264.0463,98.4318 C265.3613,95.1458 268.6483,93.0648 272.1523,93.0648 C277.0813,92.8458 281.5723,96.0218 281.5723,100.8408 L281.5723,161.8478 C281.5723,164.8058 279.1613,167.2148 276.0953,167.2148" id="Fill-19" fill="#7E57C2"></path>
            <g id="Group-23" transform="translate(294.000000, 111.872000)">
                <mask id="mask-2" fill="white">
                    <use xlink:href="#path-1"></use>
                </mask>
                <g id="Clip-22"></g>
                <path d="M26.6676,8.3555 C16.1536,8.3555 11.0056,17.1175 10.5676,24.4565 L42.9876,24.4565 C42.7696,17.3365 37.9496,8.3555 26.6676,8.3555 M47.3686,31.3565 L10.5676,31.3565 C11.3346,40.4475 17.9056,48.1145 28.6406,48.1145 C33.1306,48.1145 37.9496,46.5805 41.7826,43.7325 C42.4396,43.4045 43.2066,43.1855 43.9746,43.1855 C45.7266,43.1855 47.9166,44.7185 47.9166,47.1275 C47.9166,53.0435 34.3356,56.0005 27.6536,56.0005 C11.8826,56.0005 0.3816,44.8285 0.3816,28.1795 C0.3816,12.8455 11.4436,0.4695 26.7776,0.4695 C39.5926,0.4695 48.3546,8.4645 51.4216,20.2935 C51.8586,22.0455 52.4076,24.3465 52.4076,26.4275 C52.4076,29.0555 50.1066,31.3565 47.3686,31.3565" id="Fill-21" fill="#7E57C2" mask="url(#mask-2)"></path>
            </g>
            <path d="M428.0016,167.2148 C425.3736,167.2148 423.1826,165.0248 423.1826,162.3958 L423.1826,131.2898 C423.1826,125.0468 420.4446,120.9938 413.9816,120.9938 C408.6156,120.9938 403.2486,124.8268 400.7306,128.6608 L400.7306,162.3958 C400.7306,165.0248 398.5386,167.2148 395.8006,167.2148 C393.1716,167.2148 390.9816,165.0248 390.9816,162.3958 L390.9816,131.2898 C390.9816,125.0468 388.3536,120.9938 381.6716,120.9938 C376.5236,120.9938 371.2676,124.8268 368.6386,128.7708 L368.6386,162.3958 C368.6386,165.0248 366.4466,167.2148 363.7086,167.2148 C361.0806,167.2148 358.8906,165.0248 358.8906,162.3958 L358.8906,117.7078 C358.8906,115.1898 361.0806,112.9988 363.9286,112.9988 C366.4466,112.9988 368.6386,115.1898 368.6386,117.7078 L368.6386,121.1038 C370.8286,117.8178 377.8386,112.3418 385.7246,112.3418 C393.8296,112.3418 398.4296,116.5038 400.0716,122.0898 C403.1396,117.2708 410.1486,112.3418 417.9256,112.3418 C427.6736,112.3418 432.9306,117.5988 432.9306,128.3318 L432.9306,162.3958 C432.9306,165.0248 430.7396,167.2148 428.0016,167.2148" id="Fill-24" fill="#7E57C2"></path>
            <g id="Group-28" transform="translate(445.000000, 111.872000)" fill="#7E57C2">
                <path d="M27.1363,9.1221 C16.6213,9.1221 10.5973,18.1031 10.5973,28.1801 C10.5973,38.3661 16.6213,47.3481 27.1363,47.3481 C37.7603,47.3481 43.6743,38.3661 43.6743,28.1801 C43.6743,18.1031 37.7603,9.1221 27.1363,9.1221 M27.1363,56.0001 C10.7063,56.0001 0.5213,43.4041 0.5213,28.1801 C0.5213,12.9551 10.7063,0.4701 27.1363,0.4701 C43.6743,0.4701 53.8613,12.9551 53.8613,28.1801 C53.8613,43.4041 43.6743,56.0001 27.1363,56.0001" id="Fill-26"></path>
            </g>
            <path d="M534.3443,122.4179 C529.3063,122.8559 524.3773,125.0469 521.2003,129.7569 L521.2003,162.3959 C521.2003,165.0239 519.0103,167.2149 516.2723,167.2149 L516.1623,167.2149 C513.5333,167.1059 511.4523,165.0239 511.4523,162.3959 L511.4523,117.7079 C511.4523,115.1889 513.6433,112.9989 516.4903,112.9989 C519.0103,112.9989 521.2003,115.1889 521.2003,117.7079 L521.2003,121.8699 C524.1573,117.8169 528.9773,112.8889 534.8923,112.8889 C537.4103,112.8889 539.2733,114.7509 539.2733,117.2709 C539.2733,120.1179 537.0823,122.1989 534.3443,122.4179" id="Fill-29" fill="#7E57C2"></path>
            <path d="M553.2906,167.2148 C550.6616,167.2148 548.4716,165.0248 548.4716,162.3958 L548.4716,117.7078 C548.4716,115.1898 550.6616,112.9988 553.5096,112.9988 C556.0286,112.9988 558.2196,115.1898 558.2196,117.7078 L558.2196,162.3958 C558.2196,165.0248 556.0286,167.2148 553.2906,167.2148 M559.5336,100.4028 C559.5336,103.7978 556.7956,106.6458 553.2906,106.6458 C549.8946,106.6458 547.0476,103.7978 547.0476,100.4028 C547.0476,96.8978 549.8946,94.0498 553.2906,94.0498 C556.7956,94.0498 559.5336,96.8978 559.5336,100.4028" id="Fill-31" fill="#7E57C2"></path>
            <path d="M606.7369,145.9667 C603.7799,141.9137 598.5219,139.8327 593.0459,139.8327 C585.9259,139.8327 580.7789,144.2137 580.7789,150.5667 C580.7789,156.6997 585.9259,160.9717 593.0459,160.9717 C598.5219,160.9717 603.7799,158.9997 606.7369,154.9467 L606.7369,145.9667 Z M611.5559,167.2147 L611.2269,167.2147 C609.2569,167.2147 606.7369,165.5717 606.7369,162.3957 L606.7369,160.6437 C602.4659,165.3527 596.4409,167.8717 589.3219,167.8717 C580.5599,167.8717 570.9219,161.9567 570.9219,150.3477 C570.9219,138.4087 580.5599,133.0417 589.3219,133.0417 C596.5499,133.0417 602.5749,135.3417 606.7369,140.0517 L606.7369,131.1807 C606.7369,124.4987 601.2599,120.5557 593.8129,120.5557 C588.8829,120.5557 584.5029,122.0897 580.5599,125.1557 C579.7939,125.7037 578.9169,126.0317 578.1499,126.0317 C576.1779,126.0317 574.0969,124.4987 574.0969,122.1987 C574.0969,121.3217 574.4259,120.4457 575.0839,119.6797 C580.1219,114.6417 588.1169,112.3417 595.2369,112.3417 C606.6279,112.3417 616.4849,117.2707 616.4849,130.7417 L616.4849,162.3957 C616.4849,165.0247 614.2949,167.2147 611.5559,167.2147 L611.5559,167.2147 Z" id="Fill-33" fill="#7E57C2"></path>
            <path d="M636.9625,167.2148 C634.3335,167.2148 632.1435,165.0248 632.1435,162.3958 L632.1435,97.5548 C632.1435,95.0358 634.3335,92.8458 637.1815,92.8458 C639.7005,92.8458 641.8915,95.0358 641.8915,97.5548 L641.8915,162.3958 C641.8915,165.0248 639.7005,167.2148 636.9625,167.2148" id="Fill-35" fill="#7E57C2"></path>
            <g id="Group-39" transform="translate(0.000000, 0.872000)">
                <mask id="mask-4" fill="white">
                    <use xlink:href="#path-3"></use>
                </mask>
                <g id="Clip-38"></g>
                <path d="M70.5836,118.903 C69.9326,118.34 52.2906,102.226 52.2906,82.965 C52.2906,59.465 66.6516,45.428 90.6296,45.428 C104.6666,45.428 117.8246,56.498 124.1596,62.758 C130.3016,56.689 142.8586,46.135 156.4056,45.493 C142.7756,18.584 114.8776,0.128 82.6516,0.128 C37.0046,0.128 -0.0004,37.131 -0.0004,82.779 C-0.0004,128.427 37.0046,165.43 82.6516,165.43 C93.3196,165.43 103.5056,163.385 112.8666,159.705 L70.5836,118.903 Z" id="Fill-37" fill="#512DA8" mask="url(#mask-4)"></path>
            </g>
            <path d="M177.2899,127.4746 C177.2899,129.4076 175.7219,130.9806 173.7889,130.9806 L158.5889,130.9806 L158.5889,146.1756 C158.5889,148.1086 157.0209,149.6816 155.0879,149.6816 L148.0759,149.6816 C146.1369,149.6816 144.5629,148.1086 144.5629,146.1756 L144.5629,130.9806 L129.3749,130.9806 C127.4359,130.9806 125.8629,129.4076 125.8629,127.4746 L125.8629,120.4616 C125.8629,118.5286 127.4359,116.9556 129.3749,116.9556 L144.5629,116.9556 L144.5629,101.7606 C144.5629,99.8276 146.1369,98.2546 148.0759,98.2546 L155.0879,98.2546 C157.0209,98.2546 158.5889,99.8276 158.5889,101.7606 L158.5889,116.9556 L173.7889,116.9556 C175.7219,116.9556 177.2899,118.5286 177.2899,120.4616 L177.2899,127.4746 Z" id="Fill-40" fill="#512DA8"></path>
        </g>
    </g>
</svg>